<?xml version="1.0" encoding="UTF-8"?> <svg xmlns="http://www.w3.org/2000/svg" height="512pt" viewBox="0 0 512 512" width="512pt"><path d="m327.601562 504.5h-144v-187.957031c0-24.539063 19.890626-44.429688 44.429688-44.429688h55.140625c24.539063 0 44.429687 19.890625 44.429687 44.429688zm0 0" fill="#bd8957"></path><path d="m283.171875 272.113281h-44c24.539063 0 44.429687 19.890625 44.429687 44.429688v187.957031h44v-187.957031c0-24.539063-19.890624-44.429688-44.429687-44.429688zm0 0" fill="#b07a46"></path><g fill="#f6cc90"><path d="m64.242188 504.5h-56.742188v-204.015625c0-15.667969 12.703125-28.371094 28.371094-28.371094 15.667968 0 28.371094 12.703125 28.371094 28.371094zm0 0"></path><path d="m152.296875 504.5h-56.746094v-204.015625c0-15.667969 12.703125-28.371094 28.371094-28.371094 15.671875 0 28.375 12.703125 28.375 28.371094zm0 0"></path><path d="m415.5 504.5h-56.742188v-204.015625c0-15.667969 12.703126-28.371094 28.371094-28.371094 15.667969 0 28.371094 12.703125 28.371094 28.371094zm0 0"></path><path d="m504.5 504.5h-56.742188v-204.015625c0-15.667969 12.703126-28.371094 28.371094-28.371094 15.667969 0 28.371094 12.703125 28.371094 28.371094zm0 0"></path></g><path d="m124.308594 417.1875c-10.605469 0-20.601563 2.578125-29.425782 7.113281-3.476562-20.773437-21.527343-36.609375-43.289062-36.609375-24.019531 0-43.523438 19.296875-43.882812 43.234375l-.019532-.015625v73.398438h177.011719c2.640625-7.042969 4.085937-14.671875 4.085937-22.636719 0-35.613281-28.867187-64.484375-64.480468-64.484375zm0 0" fill="#b2d94b"></path><path d="m323.402344 481.863281c0 7.964844 1.445312 15.59375 4.085937 22.636719h177.011719v-73.398438l-.015625.015626c-.363281-23.9375-19.867187-43.234376-43.886719-43.234376-21.761718 0-39.8125 15.835938-43.289062 36.609376-8.824219-4.535157-18.820313-7.109376-29.425782-7.109376-35.609374 0-64.480468 28.867188-64.480468 64.480469zm0 0" fill="#b2d94b"></path><path d="m365.859375 421.246094c2.5625.929687 5.050781 2.011718 7.449219 3.246094.332031-1.964844.789062-3.882813 1.371094-5.753907-3.023438.628907-5.96875 1.46875-8.820313 2.507813zm0 0" fill="#9cc042"></path><path d="m504.484375 431.117188c-.363281-23.9375-19.867187-43.234376-43.886719-43.234376-8.023437 0-15.535156 2.15625-22.003906 5.917969 12.90625 7.492188 21.648438 21.371094 21.886719 37.316407l.019531-.015626v73.398438h44v-73.398438zm0 0" fill="#9cc042"></path><path d="m96 7.5h320v156h-320zm0 0" fill="#f8d8ad"></path><path d="m376 7.5h40v156h-40zm0 0" fill="#f6cc90"></path><path d="m332.242188 99.742188c-.917969-5.964844-4.132813-11.007813-8.597657-14.375 5.179688-4.074219 8.511719-10.394532 8.511719-17.496094 0-12.289063-9.960938-22.25-22.25-22.25-12.285156 0-22.246094 9.960937-22.246094 22.25 0 1.105468.089844 2.1875.246094 3.25h-64.160156c.15625-1.0625.246094-2.144532.246094-3.25 0-12.289063-9.960938-22.25-22.246094-22.25-12.289063 0-22.25 9.960937-22.25 22.25 0 7.253906 3.476562 13.699218 8.851562 17.757812-6.101562 4.800782-9.515625 12.660156-8.25 20.878906 1.867188 12.144532 13.226563 20.476563 25.371094 18.605469 12.101562-1.859375 20.414062-13.144531 18.625-25.238281h64.152344c-.316406 2.148438-.335938 4.375.011718 6.632812 1.871094 12.144532 13.230469 20.476563 25.375 18.605469 12.144532-1.867187 20.476563-13.226562 18.609376-25.371093zm0 0" fill="#9e6229"></path><path d="m476.128906 264.613281c-19.78125 0-35.871094 16.089844-35.871094 35.871094v62.515625h-17.257812v-62.515625c0-17.027344-11.933594-31.3125-27.871094-34.960937v-94.523438h20.871094c4.140625 0 7.5-3.359375 7.5-7.5v-156c0-4.140625-3.359375-7.5-7.5-7.5h-320c-4.140625 0-7.5 3.359375-7.5 7.5v26.5c0 9.652344 15 9.667969 15 0v-19h305v141h-305v-78c0-9.652344-15-9.667969-15 0v85.5c0 4.140625 3.359375 7.5 7.5 7.5h19.976562v94.511719c-15.96875 3.628906-27.925781 17.925781-27.925781 34.972656v62.515625h-16.308593v-62.515625c0-19.519531-16.351563-35.871094-35.871094-35.871094-19.515625 0-35.871094 16.347657-35.871094 35.871094v128.515625c0 .585938.0742188 1.152344.199219 1.699219 0 .070312-.007813.140625-.007813.210937v73.398438c0 4.140625 3.359375 7.5 7.5 7.5h48.308594c9.667969 0 9.652344-15 0-15h-40.808594v-65.375c.007813-.132813.015625-.261719.015625-.394532.296875-19.765624 16.621094-35.847656 36.386719-35.847656 17.855469 0 32.949219 12.761719 35.890625 30.347656.820313 4.902344 6.425781 7.691407 10.828125 5.433594 8.109375-4.167968 16.855469-6.285156 25.996094-6.285156 8.152344 0 15.902344 1.734375 22.921875 4.832031 1.054687.96875 2.382812 1.636719 3.863281 1.875 17.949219 9.601563 30.195312 28.535157 30.195312 50.277344 0 5.160156-.679687 10.230469-2.027343 15.136719h-80.261719c-9.667969 0-9.652344 15 0 15l405.5.191406c4.140625 0 7.5-3.359375 7.5-7.5v-204.015625c0-19.78125-16.09375-35.871094-35.871094-35.871094zm0 15c11.507813 0 20.871094 9.363281 20.871094 20.871094v95.160156c-9.339844-9.40625-22.238281-15.261719-36.402344-15.261719-1.800781 0-3.582031.101563-5.339844.28125v-80.179687c0-11.507813 9.359376-20.871094 20.871094-20.871094zm-35.871094 98.386719v6.546875c-6.5625 2.808594-12.433593 6.949219-17.257812 12.121094v-18.667969zm-32.257812-77.515625v112.261719c-6.484375-1.894532-13.210938-2.863282-20.117188-2.863282-7.53125 0-14.796874 1.167969-21.625 3.324219v-40.839843c.152344-.597657.242188-1.222657.242188-1.867188s-.089844-1.269531-.242188-1.867188v-68.148437c0-26.894531 41.742188-26.953125 41.742188 0zm-72.898438 77.515625h16.15625v41.933594c-6 3.558594-11.441406 7.964844-16.15625 13.054687zm45.027344-207v94.304688c-16.441406 3.265624-28.871094 17.796874-28.871094 35.179687v62.515625h-16.15625v-4c0-9.652344-15-9.667969-15 0v97.5c0 .324219.03125.640625.070313.953125-2.757813 7.628906-4.269531 15.84375-4.269531 24.410156 0 5.128907.546875 10.191407 1.609375 15.136719h-122.871094c1.089844-5.007812 1.648437-10.132812 1.648437-15.328125 0-9.464844-1.855468-18.496094-5.1875-26.78125v-138.347656c0-20.363281 16.566407-36.929688 36.929688-36.929688h55.140625c20.363281 0 36.929687 16.566407 36.929687 36.929688 0 9.652343 15 9.667969 15 0 0-28.636719-23.296874-51.929688-51.929687-51.929688h-55.140625c-28.632812 0-51.929688 23.292969-51.929688 51.929688v46.457031h-16.304687v-62.515625c0-17.367187-12.40625-31.886719-28.824219-35.171875v-94.3125zm-365.128906 224.648438v-95.164063c0-26.894531 41.742188-26.953125 41.742188 0v79.96875c-1.695313-.167969-3.410157-.261719-5.148438-.261719-14.257812 0-27.242188 5.9375-36.59375 15.457032zm56.742188-11.378907v-6.269531h16.308593v17.289062c-4.648437-4.667968-10.179687-8.421874-16.308593-11.019531zm31.308593 28.617188v-112.402344c0-26.894531 41.746094-26.953125 41.746094 0v112.191406c-6.5-1.933593-13.371094-2.988281-20.488281-2.988281-7.308594 0-14.421875 1.078125-21.257813 3.199219zm56.746094 6.195312v-41.082031h16.304687v53.761719c-4.785156-4.964844-10.273437-9.246094-16.304687-12.679688zm337.203125 77.917969h-164.066406c-1.347656-4.902344-2.03125-9.976562-2.03125-15.136719 0-31.421875 25.5625-56.980469 56.980468-56.980469 9.140626 0 17.886719 2.113282 26 6.28125 2.128907 1.09375 4.652344 1.105469 6.789063.03125 2.140625-1.074218 3.640625-3.105468 4.035156-5.464843 2.941407-17.585938 18.035157-30.347657 35.890625-30.347657 19.765625 0 36.089844 16.082032 36.386719 35.847657 0 .132812.003906.261719.015625.390625zm0 0"></path><path d="m309.910156 38.121094c-14.964844 0-27.378906 11.105468-29.449218 25.503906h-49.269532c-2.066406-14.398438-14.484375-25.503906-29.445312-25.503906-16.402344 0-29.75 13.347656-29.75 29.75 0 6.582031 2.109375 12.796875 5.953125 17.882812-4.488281 6.246094-6.464844 14.101563-5.265625 21.894532 1.210937 7.855468 5.402344 14.769531 11.8125 19.46875 5.15625 3.78125 11.25 5.765624 17.527344 5.765624 1.523437 0 3.054687-.117187 4.585937-.355468 13.199219-2.027344 23.078125-12.550782 24.917969-25.152344h49.277344c.015624.09375.027343.183594.042968.273438 2.492188 16.214843 17.710938 27.382812 33.925782 24.878906 16.210937-2.492188 27.371093-17.710938 24.878906-33.925782-.753906-4.90625-2.6875-9.460937-5.601563-13.335937 3.617188-5 5.605469-11.039063 5.605469-17.394531 0-16.402344-13.34375-29.75-29.746094-29.75zm2.582032 79.582031c-8.039063 1.234375-15.582032-4.296875-16.816407-12.332031-.222656-1.445313-.226562-2.925782-.007812-4.398438.316406-2.160156-.316407-4.347656-1.742188-5.996094-1.425781-1.652343-3.496093-2.601562-5.679687-2.601562h-64.148438c-2.183594 0-4.253906.949219-5.679687 2.601562-1.425781 1.652344-2.0625 3.839844-1.742188 5.996094 1.183594 7.996094-4.355469 15.5-12.34375 16.730469-3.894531.597656-7.789062-.355469-10.964843-2.683594-3.175782-2.328125-5.257813-5.757812-5.855469-9.648437-.808594-5.25 1.292969-10.554688 5.472656-13.84375 1.828125-1.4375 2.886719-3.644532 2.863281-5.96875-.023437-2.324219-1.121094-4.507813-2.976562-5.910156-3.730469-2.820313-5.871094-7.113282-5.871094-11.777344 0-8.132813 6.613281-14.75 14.746094-14.75 8.136718 0 14.75 6.617187 14.75 14.75 0 .695312-.054688 1.402344-.167969 2.164062-.316406 2.15625.320313 4.34375 1.746094 5.992188 1.425781 1.648437 3.496093 2.597656 5.675781 2.597656h64.15625c2.179688 0 4.25-.945312 5.675781-2.59375s2.0625-3.835938 1.746094-5.992188c-.109375-.765624-.167969-1.476562-.167969-2.167968 0-8.128906 6.617188-14.746094 14.75-14.746094 8.132813 0 14.75 6.613281 14.75 14.746094 0 4.550781-2.058594 8.78125-5.648437 11.601562-1.832031 1.4375-2.890625 3.644532-2.863281 5.972656.023437 2.328126 1.125 4.511719 2.984374 5.914063 3.085938 2.328125 5.109376 5.710937 5.699219 9.527344 1.230469 8.035156-4.300781 15.582031-12.339843 16.816406zm0 0"></path></svg> 